<mxfile host="app.diagrams.net" modified="2021-12-20T05:00:14.015Z" agent="5.0 (Macintosh; Intel Mac OS X 10_15_7) AppleWebKit/537.36 (KHTML, like Gecko) Chrome/94.0.4606.85 YaBrowser/21.11.0.2054 Yowser/2.5 Safari/537.36" etag="zblU9eiq9nIsRE9Kg58r" version="16.0.0" type="github">
  <diagram id="C5RBs43oDa-KdzZeNtuy" name="Page-1">
    <mxGraphModel dx="946" dy="1818" grid="1" gridSize="10" guides="1" tooltips="1" connect="1" arrows="1" fold="1" page="1" pageScale="1" pageWidth="827" pageHeight="1169" math="0" shadow="0">
      <root>
        <mxCell id="WIyWlLk6GJQsqaUBKTNV-0" />
        <mxCell id="WIyWlLk6GJQsqaUBKTNV-1" parent="WIyWlLk6GJQsqaUBKTNV-0" />
        <mxCell id="s_3r4BUJzknT4jBoe1-g-10" value="" style="rounded=0;whiteSpace=wrap;html=1;" vertex="1" parent="WIyWlLk6GJQsqaUBKTNV-1">
          <mxGeometry x="230" y="100" width="170" height="180" as="geometry" />
        </mxCell>
        <mxCell id="s_3r4BUJzknT4jBoe1-g-11" value="" style="rounded=0;whiteSpace=wrap;html=1;" vertex="1" parent="WIyWlLk6GJQsqaUBKTNV-1">
          <mxGeometry x="230" y="100" width="170" height="30" as="geometry" />
        </mxCell>
        <mxCell id="s_3r4BUJzknT4jBoe1-g-12" value="" style="rounded=0;whiteSpace=wrap;html=1;" vertex="1" parent="WIyWlLk6GJQsqaUBKTNV-1">
          <mxGeometry x="230" y="130" width="40" height="150" as="geometry" />
        </mxCell>
        <mxCell id="s_3r4BUJzknT4jBoe1-g-13" value="Clients&lt;br&gt;" style="text;html=1;strokeColor=none;fillColor=#E6E6E6;align=center;verticalAlign=middle;whiteSpace=wrap;rounded=0;" vertex="1" parent="WIyWlLk6GJQsqaUBKTNV-1">
          <mxGeometry x="230" y="100" width="170" height="30" as="geometry" />
        </mxCell>
        <mxCell id="s_3r4BUJzknT4jBoe1-g-129" style="edgeStyle=orthogonalEdgeStyle;rounded=0;orthogonalLoop=1;jettySize=auto;html=1;entryX=0;entryY=0.5;entryDx=0;entryDy=0;" edge="1" parent="WIyWlLk6GJQsqaUBKTNV-1" source="s_3r4BUJzknT4jBoe1-g-14" target="s_3r4BUJzknT4jBoe1-g-117">
          <mxGeometry relative="1" as="geometry" />
        </mxCell>
        <mxCell id="s_3r4BUJzknT4jBoe1-g-130" style="edgeStyle=orthogonalEdgeStyle;rounded=0;orthogonalLoop=1;jettySize=auto;html=1;entryX=0;entryY=0.833;entryDx=0;entryDy=0;entryPerimeter=0;" edge="1" parent="WIyWlLk6GJQsqaUBKTNV-1" source="s_3r4BUJzknT4jBoe1-g-14" target="s_3r4BUJzknT4jBoe1-g-99">
          <mxGeometry relative="1" as="geometry" />
        </mxCell>
        <mxCell id="s_3r4BUJzknT4jBoe1-g-14" value="PK" style="text;html=1;strokeColor=none;fillColor=none;align=center;verticalAlign=middle;whiteSpace=wrap;rounded=0;" vertex="1" parent="WIyWlLk6GJQsqaUBKTNV-1">
          <mxGeometry x="230" y="130" width="40" height="30" as="geometry" />
        </mxCell>
        <mxCell id="s_3r4BUJzknT4jBoe1-g-15" value="Client_id" style="text;html=1;strokeColor=none;fillColor=none;align=center;verticalAlign=middle;whiteSpace=wrap;rounded=0;" vertex="1" parent="WIyWlLk6GJQsqaUBKTNV-1">
          <mxGeometry x="270" y="130" width="130" height="30" as="geometry" />
        </mxCell>
        <mxCell id="s_3r4BUJzknT4jBoe1-g-16" value="Name" style="text;html=1;strokeColor=none;fillColor=none;align=center;verticalAlign=middle;whiteSpace=wrap;rounded=0;" vertex="1" parent="WIyWlLk6GJQsqaUBKTNV-1">
          <mxGeometry x="270" y="160" width="130" height="30" as="geometry" />
        </mxCell>
        <mxCell id="s_3r4BUJzknT4jBoe1-g-17" value="Surname" style="text;html=1;strokeColor=none;fillColor=none;align=center;verticalAlign=middle;whiteSpace=wrap;rounded=0;" vertex="1" parent="WIyWlLk6GJQsqaUBKTNV-1">
          <mxGeometry x="270" y="190" width="130" height="30" as="geometry" />
        </mxCell>
        <mxCell id="s_3r4BUJzknT4jBoe1-g-18" value="Country_id" style="text;html=1;strokeColor=none;fillColor=none;align=center;verticalAlign=middle;whiteSpace=wrap;rounded=0;" vertex="1" parent="WIyWlLk6GJQsqaUBKTNV-1">
          <mxGeometry x="270" y="220" width="130" height="30" as="geometry" />
        </mxCell>
        <mxCell id="s_3r4BUJzknT4jBoe1-g-19" value="Email adress" style="text;html=1;strokeColor=none;fillColor=none;align=center;verticalAlign=middle;whiteSpace=wrap;rounded=0;" vertex="1" parent="WIyWlLk6GJQsqaUBKTNV-1">
          <mxGeometry x="270" y="250" width="130" height="30" as="geometry" />
        </mxCell>
        <mxCell id="s_3r4BUJzknT4jBoe1-g-22" value="" style="endArrow=none;html=1;rounded=0;exitX=0;exitY=1;exitDx=0;exitDy=0;entryX=1;entryY=0;entryDx=0;entryDy=0;" edge="1" parent="WIyWlLk6GJQsqaUBKTNV-1" source="s_3r4BUJzknT4jBoe1-g-14" target="s_3r4BUJzknT4jBoe1-g-16">
          <mxGeometry width="50" height="50" relative="1" as="geometry">
            <mxPoint x="390" y="350" as="sourcePoint" />
            <mxPoint x="440" y="300" as="targetPoint" />
          </mxGeometry>
        </mxCell>
        <mxCell id="s_3r4BUJzknT4jBoe1-g-23" value="" style="rounded=0;whiteSpace=wrap;html=1;" vertex="1" parent="WIyWlLk6GJQsqaUBKTNV-1">
          <mxGeometry x="650" y="160" width="170" height="90" as="geometry" />
        </mxCell>
        <mxCell id="s_3r4BUJzknT4jBoe1-g-24" value="" style="rounded=0;whiteSpace=wrap;html=1;" vertex="1" parent="WIyWlLk6GJQsqaUBKTNV-1">
          <mxGeometry x="650" y="160" width="170" height="30" as="geometry" />
        </mxCell>
        <mxCell id="s_3r4BUJzknT4jBoe1-g-25" value="" style="rounded=0;whiteSpace=wrap;html=1;" vertex="1" parent="WIyWlLk6GJQsqaUBKTNV-1">
          <mxGeometry x="650" y="190" width="40" height="60" as="geometry" />
        </mxCell>
        <mxCell id="s_3r4BUJzknT4jBoe1-g-26" value="Countryes" style="text;html=1;strokeColor=none;fillColor=#E6E6E6;align=center;verticalAlign=middle;whiteSpace=wrap;rounded=0;" vertex="1" parent="WIyWlLk6GJQsqaUBKTNV-1">
          <mxGeometry x="650" y="160" width="170" height="30" as="geometry" />
        </mxCell>
        <mxCell id="s_3r4BUJzknT4jBoe1-g-34" style="edgeStyle=orthogonalEdgeStyle;rounded=0;orthogonalLoop=1;jettySize=auto;html=1;entryX=0;entryY=0.5;entryDx=0;entryDy=0;" edge="1" parent="WIyWlLk6GJQsqaUBKTNV-1" source="s_3r4BUJzknT4jBoe1-g-27" target="s_3r4BUJzknT4jBoe1-g-95">
          <mxGeometry relative="1" as="geometry">
            <Array as="points">
              <mxPoint x="630" y="205" />
              <mxPoint x="630" y="310" />
              <mxPoint x="210" y="310" />
              <mxPoint x="210" y="235" />
            </Array>
          </mxGeometry>
        </mxCell>
        <mxCell id="s_3r4BUJzknT4jBoe1-g-45" style="edgeStyle=orthogonalEdgeStyle;rounded=0;orthogonalLoop=1;jettySize=auto;html=1;entryX=-0.05;entryY=0.878;entryDx=0;entryDy=0;entryPerimeter=0;" edge="1" parent="WIyWlLk6GJQsqaUBKTNV-1" source="s_3r4BUJzknT4jBoe1-g-27" target="s_3r4BUJzknT4jBoe1-g-37">
          <mxGeometry relative="1" as="geometry">
            <Array as="points">
              <mxPoint x="630" y="205" />
              <mxPoint x="630" y="310" />
              <mxPoint x="420" y="310" />
              <mxPoint x="420" y="229" />
            </Array>
          </mxGeometry>
        </mxCell>
        <mxCell id="s_3r4BUJzknT4jBoe1-g-27" value="PK" style="text;html=1;strokeColor=none;fillColor=none;align=center;verticalAlign=middle;whiteSpace=wrap;rounded=0;" vertex="1" parent="WIyWlLk6GJQsqaUBKTNV-1">
          <mxGeometry x="650" y="190" width="40" height="30" as="geometry" />
        </mxCell>
        <mxCell id="s_3r4BUJzknT4jBoe1-g-28" value="Country_id" style="text;html=1;strokeColor=none;fillColor=none;align=center;verticalAlign=middle;whiteSpace=wrap;rounded=0;" vertex="1" parent="WIyWlLk6GJQsqaUBKTNV-1">
          <mxGeometry x="690" y="190" width="130" height="30" as="geometry" />
        </mxCell>
        <mxCell id="s_3r4BUJzknT4jBoe1-g-29" value="Country name" style="text;html=1;strokeColor=none;fillColor=none;align=center;verticalAlign=middle;whiteSpace=wrap;rounded=0;" vertex="1" parent="WIyWlLk6GJQsqaUBKTNV-1">
          <mxGeometry x="690" y="220" width="130" height="30" as="geometry" />
        </mxCell>
        <mxCell id="s_3r4BUJzknT4jBoe1-g-31" value="City_id" style="text;html=1;strokeColor=none;fillColor=none;align=center;verticalAlign=middle;whiteSpace=wrap;rounded=0;" vertex="1" parent="WIyWlLk6GJQsqaUBKTNV-1">
          <mxGeometry x="480" y="200" width="130" height="30" as="geometry" />
        </mxCell>
        <mxCell id="s_3r4BUJzknT4jBoe1-g-33" value="" style="endArrow=none;html=1;rounded=0;exitX=0;exitY=1;exitDx=0;exitDy=0;entryX=1;entryY=0;entryDx=0;entryDy=0;" edge="1" parent="WIyWlLk6GJQsqaUBKTNV-1" source="s_3r4BUJzknT4jBoe1-g-27" target="s_3r4BUJzknT4jBoe1-g-29">
          <mxGeometry width="50" height="50" relative="1" as="geometry">
            <mxPoint x="820" y="410" as="sourcePoint" />
            <mxPoint x="870" y="360" as="targetPoint" />
          </mxGeometry>
        </mxCell>
        <mxCell id="s_3r4BUJzknT4jBoe1-g-35" value="" style="rounded=0;whiteSpace=wrap;html=1;" vertex="1" parent="WIyWlLk6GJQsqaUBKTNV-1">
          <mxGeometry x="440" y="150" width="170" height="90" as="geometry" />
        </mxCell>
        <mxCell id="s_3r4BUJzknT4jBoe1-g-36" value="" style="rounded=0;whiteSpace=wrap;html=1;" vertex="1" parent="WIyWlLk6GJQsqaUBKTNV-1">
          <mxGeometry x="440" y="120" width="170" height="30" as="geometry" />
        </mxCell>
        <mxCell id="s_3r4BUJzknT4jBoe1-g-37" value="" style="rounded=0;whiteSpace=wrap;html=1;" vertex="1" parent="WIyWlLk6GJQsqaUBKTNV-1">
          <mxGeometry x="440" y="150" width="40" height="90" as="geometry" />
        </mxCell>
        <mxCell id="s_3r4BUJzknT4jBoe1-g-38" value="Cityes" style="text;html=1;strokeColor=none;fillColor=#E6E6E6;align=center;verticalAlign=middle;whiteSpace=wrap;rounded=0;" vertex="1" parent="WIyWlLk6GJQsqaUBKTNV-1">
          <mxGeometry x="440" y="120" width="170" height="30" as="geometry" />
        </mxCell>
        <mxCell id="s_3r4BUJzknT4jBoe1-g-61" style="edgeStyle=orthogonalEdgeStyle;rounded=0;orthogonalLoop=1;jettySize=auto;html=1;entryX=0;entryY=0.5;entryDx=0;entryDy=0;" edge="1" parent="WIyWlLk6GJQsqaUBKTNV-1" source="s_3r4BUJzknT4jBoe1-g-39" target="s_3r4BUJzknT4jBoe1-g-96">
          <mxGeometry relative="1" as="geometry">
            <Array as="points">
              <mxPoint x="410" y="165" />
              <mxPoint x="410" y="-5" />
            </Array>
          </mxGeometry>
        </mxCell>
        <mxCell id="s_3r4BUJzknT4jBoe1-g-39" value="PK" style="text;html=1;strokeColor=none;fillColor=none;align=center;verticalAlign=middle;whiteSpace=wrap;rounded=0;" vertex="1" parent="WIyWlLk6GJQsqaUBKTNV-1">
          <mxGeometry x="440" y="150" width="40" height="30" as="geometry" />
        </mxCell>
        <mxCell id="s_3r4BUJzknT4jBoe1-g-40" value="City_id" style="text;html=1;strokeColor=none;fillColor=none;align=center;verticalAlign=middle;whiteSpace=wrap;rounded=0;" vertex="1" parent="WIyWlLk6GJQsqaUBKTNV-1">
          <mxGeometry x="480" y="150" width="130" height="30" as="geometry" />
        </mxCell>
        <mxCell id="s_3r4BUJzknT4jBoe1-g-41" value="City_name" style="text;html=1;strokeColor=none;fillColor=none;align=center;verticalAlign=middle;whiteSpace=wrap;rounded=0;" vertex="1" parent="WIyWlLk6GJQsqaUBKTNV-1">
          <mxGeometry x="480" y="180" width="130" height="30" as="geometry" />
        </mxCell>
        <mxCell id="s_3r4BUJzknT4jBoe1-g-43" value="" style="endArrow=none;html=1;rounded=0;exitX=0;exitY=1;exitDx=0;exitDy=0;entryX=1;entryY=0;entryDx=0;entryDy=0;" edge="1" parent="WIyWlLk6GJQsqaUBKTNV-1" source="s_3r4BUJzknT4jBoe1-g-39" target="s_3r4BUJzknT4jBoe1-g-41">
          <mxGeometry width="50" height="50" relative="1" as="geometry">
            <mxPoint x="610" y="370" as="sourcePoint" />
            <mxPoint x="660" y="320" as="targetPoint" />
          </mxGeometry>
        </mxCell>
        <mxCell id="s_3r4BUJzknT4jBoe1-g-44" value="Country_id" style="text;html=1;strokeColor=none;fillColor=none;align=center;verticalAlign=middle;whiteSpace=wrap;rounded=0;" vertex="1" parent="WIyWlLk6GJQsqaUBKTNV-1">
          <mxGeometry x="480" y="210" width="130" height="30" as="geometry" />
        </mxCell>
        <mxCell id="s_3r4BUJzknT4jBoe1-g-47" value="" style="rounded=0;whiteSpace=wrap;html=1;" vertex="1" parent="WIyWlLk6GJQsqaUBKTNV-1">
          <mxGeometry x="440" y="-80" width="170" height="180" as="geometry" />
        </mxCell>
        <mxCell id="s_3r4BUJzknT4jBoe1-g-48" value="" style="rounded=0;whiteSpace=wrap;html=1;" vertex="1" parent="WIyWlLk6GJQsqaUBKTNV-1">
          <mxGeometry x="440" y="-80" width="170" height="30" as="geometry" />
        </mxCell>
        <mxCell id="s_3r4BUJzknT4jBoe1-g-49" value="" style="rounded=0;whiteSpace=wrap;html=1;" vertex="1" parent="WIyWlLk6GJQsqaUBKTNV-1">
          <mxGeometry x="440" y="-50" width="40" height="150" as="geometry" />
        </mxCell>
        <mxCell id="s_3r4BUJzknT4jBoe1-g-50" value="Homes" style="text;html=1;strokeColor=none;fillColor=#E6E6E6;align=center;verticalAlign=middle;whiteSpace=wrap;rounded=0;" vertex="1" parent="WIyWlLk6GJQsqaUBKTNV-1">
          <mxGeometry x="440" y="-80" width="170" height="30" as="geometry" />
        </mxCell>
        <mxCell id="s_3r4BUJzknT4jBoe1-g-51" value="PK" style="text;html=1;strokeColor=none;fillColor=none;align=center;verticalAlign=middle;whiteSpace=wrap;rounded=0;" vertex="1" parent="WIyWlLk6GJQsqaUBKTNV-1">
          <mxGeometry x="440" y="-50" width="40" height="30" as="geometry" />
        </mxCell>
        <mxCell id="s_3r4BUJzknT4jBoe1-g-52" value="Home_id" style="text;html=1;strokeColor=none;fillColor=none;align=center;verticalAlign=middle;whiteSpace=wrap;rounded=0;" vertex="1" parent="WIyWlLk6GJQsqaUBKTNV-1">
          <mxGeometry x="480" y="-50" width="130" height="30" as="geometry" />
        </mxCell>
        <mxCell id="s_3r4BUJzknT4jBoe1-g-57" value="" style="endArrow=none;html=1;rounded=0;exitX=0;exitY=1;exitDx=0;exitDy=0;entryX=1;entryY=0;entryDx=0;entryDy=0;" edge="1" parent="WIyWlLk6GJQsqaUBKTNV-1" source="s_3r4BUJzknT4jBoe1-g-51">
          <mxGeometry width="50" height="50" relative="1" as="geometry">
            <mxPoint x="610" y="170" as="sourcePoint" />
            <mxPoint x="610" y="-20" as="targetPoint" />
          </mxGeometry>
        </mxCell>
        <mxCell id="s_3r4BUJzknT4jBoe1-g-58" value="City_id" style="text;html=1;strokeColor=none;fillColor=none;align=center;verticalAlign=middle;whiteSpace=wrap;rounded=0;" vertex="1" parent="WIyWlLk6GJQsqaUBKTNV-1">
          <mxGeometry x="480" y="-20" width="130" height="30" as="geometry" />
        </mxCell>
        <mxCell id="s_3r4BUJzknT4jBoe1-g-59" value="Price" style="text;html=1;strokeColor=none;fillColor=none;align=center;verticalAlign=middle;whiteSpace=wrap;rounded=0;" vertex="1" parent="WIyWlLk6GJQsqaUBKTNV-1">
          <mxGeometry x="480" y="10" width="130" height="30" as="geometry" />
        </mxCell>
        <mxCell id="s_3r4BUJzknT4jBoe1-g-60" value="Kind" style="text;html=1;strokeColor=none;fillColor=none;align=center;verticalAlign=middle;whiteSpace=wrap;rounded=0;" vertex="1" parent="WIyWlLk6GJQsqaUBKTNV-1">
          <mxGeometry x="480" y="40" width="130" height="30" as="geometry" />
        </mxCell>
        <mxCell id="s_3r4BUJzknT4jBoe1-g-62" value="" style="rounded=0;whiteSpace=wrap;html=1;" vertex="1" parent="WIyWlLk6GJQsqaUBKTNV-1">
          <mxGeometry x="230" y="-80" width="170" height="90" as="geometry" />
        </mxCell>
        <mxCell id="s_3r4BUJzknT4jBoe1-g-63" value="" style="rounded=0;whiteSpace=wrap;html=1;" vertex="1" parent="WIyWlLk6GJQsqaUBKTNV-1">
          <mxGeometry x="230" y="-80" width="170" height="30" as="geometry" />
        </mxCell>
        <mxCell id="s_3r4BUJzknT4jBoe1-g-64" value="" style="rounded=0;whiteSpace=wrap;html=1;" vertex="1" parent="WIyWlLk6GJQsqaUBKTNV-1">
          <mxGeometry x="230" y="-50" width="40" height="60" as="geometry" />
        </mxCell>
        <mxCell id="s_3r4BUJzknT4jBoe1-g-65" value="Architector" style="text;html=1;strokeColor=none;fillColor=#E6E6E6;align=center;verticalAlign=middle;whiteSpace=wrap;rounded=0;" vertex="1" parent="WIyWlLk6GJQsqaUBKTNV-1">
          <mxGeometry x="230" y="-80" width="170" height="30" as="geometry" />
        </mxCell>
        <mxCell id="s_3r4BUJzknT4jBoe1-g-77" style="edgeStyle=orthogonalEdgeStyle;rounded=0;orthogonalLoop=1;jettySize=auto;html=1;entryX=-0.075;entryY=0.887;entryDx=0;entryDy=0;entryPerimeter=0;" edge="1" parent="WIyWlLk6GJQsqaUBKTNV-1" source="s_3r4BUJzknT4jBoe1-g-66" target="s_3r4BUJzknT4jBoe1-g-49">
          <mxGeometry relative="1" as="geometry">
            <Array as="points">
              <mxPoint x="220" y="-35" />
              <mxPoint x="220" y="83" />
            </Array>
          </mxGeometry>
        </mxCell>
        <mxCell id="s_3r4BUJzknT4jBoe1-g-66" value="PK" style="text;html=1;strokeColor=none;fillColor=none;align=center;verticalAlign=middle;whiteSpace=wrap;rounded=0;" vertex="1" parent="WIyWlLk6GJQsqaUBKTNV-1">
          <mxGeometry x="230" y="-50" width="40" height="30" as="geometry" />
        </mxCell>
        <mxCell id="s_3r4BUJzknT4jBoe1-g-67" value="Architector_id" style="text;html=1;strokeColor=none;fillColor=none;align=center;verticalAlign=middle;whiteSpace=wrap;rounded=0;" vertex="1" parent="WIyWlLk6GJQsqaUBKTNV-1">
          <mxGeometry x="270" y="-50" width="130" height="30" as="geometry" />
        </mxCell>
        <mxCell id="s_3r4BUJzknT4jBoe1-g-68" value="" style="endArrow=none;html=1;rounded=0;exitX=0;exitY=1;exitDx=0;exitDy=0;entryX=1;entryY=0;entryDx=0;entryDy=0;" edge="1" parent="WIyWlLk6GJQsqaUBKTNV-1" source="s_3r4BUJzknT4jBoe1-g-66">
          <mxGeometry width="50" height="50" relative="1" as="geometry">
            <mxPoint x="400" y="170" as="sourcePoint" />
            <mxPoint x="400" y="-20" as="targetPoint" />
          </mxGeometry>
        </mxCell>
        <mxCell id="s_3r4BUJzknT4jBoe1-g-74" value="Architector name" style="text;html=1;strokeColor=none;fillColor=none;align=center;verticalAlign=middle;whiteSpace=wrap;rounded=0;" vertex="1" parent="WIyWlLk6GJQsqaUBKTNV-1">
          <mxGeometry x="270" y="-20" width="130" height="30" as="geometry" />
        </mxCell>
        <mxCell id="s_3r4BUJzknT4jBoe1-g-78" value="Architector_id" style="text;html=1;strokeColor=none;fillColor=none;align=center;verticalAlign=middle;whiteSpace=wrap;rounded=0;" vertex="1" parent="WIyWlLk6GJQsqaUBKTNV-1">
          <mxGeometry x="480" y="70" width="130" height="30" as="geometry" />
        </mxCell>
        <mxCell id="s_3r4BUJzknT4jBoe1-g-81" value="" style="rounded=0;whiteSpace=wrap;html=1;" vertex="1" parent="WIyWlLk6GJQsqaUBKTNV-1">
          <mxGeometry x="650" y="-50" width="170" height="60" as="geometry" />
        </mxCell>
        <mxCell id="s_3r4BUJzknT4jBoe1-g-82" value="" style="rounded=0;whiteSpace=wrap;html=1;" vertex="1" parent="WIyWlLk6GJQsqaUBKTNV-1">
          <mxGeometry x="650" y="-80" width="170" height="30" as="geometry" />
        </mxCell>
        <mxCell id="s_3r4BUJzknT4jBoe1-g-83" value="" style="rounded=0;whiteSpace=wrap;html=1;" vertex="1" parent="WIyWlLk6GJQsqaUBKTNV-1">
          <mxGeometry x="650" y="-50" width="40" height="60" as="geometry" />
        </mxCell>
        <mxCell id="s_3r4BUJzknT4jBoe1-g-84" value="Kind" style="text;html=1;strokeColor=none;fillColor=#E6E6E6;align=center;verticalAlign=middle;whiteSpace=wrap;rounded=0;" vertex="1" parent="WIyWlLk6GJQsqaUBKTNV-1">
          <mxGeometry x="650" y="-80" width="170" height="30" as="geometry" />
        </mxCell>
        <mxCell id="s_3r4BUJzknT4jBoe1-g-90" style="edgeStyle=orthogonalEdgeStyle;rounded=0;orthogonalLoop=1;jettySize=auto;html=1;entryX=0;entryY=0.7;entryDx=0;entryDy=0;entryPerimeter=0;" edge="1" parent="WIyWlLk6GJQsqaUBKTNV-1" source="s_3r4BUJzknT4jBoe1-g-85" target="s_3r4BUJzknT4jBoe1-g-49">
          <mxGeometry relative="1" as="geometry">
            <mxPoint x="440" y="50" as="targetPoint" />
            <Array as="points">
              <mxPoint x="630" y="-35" />
              <mxPoint x="630" y="-90" />
              <mxPoint x="420" y="-90" />
              <mxPoint x="420" y="55" />
            </Array>
          </mxGeometry>
        </mxCell>
        <mxCell id="s_3r4BUJzknT4jBoe1-g-85" value="PK" style="text;html=1;strokeColor=none;fillColor=none;align=center;verticalAlign=middle;whiteSpace=wrap;rounded=0;" vertex="1" parent="WIyWlLk6GJQsqaUBKTNV-1">
          <mxGeometry x="650" y="-50" width="40" height="30" as="geometry" />
        </mxCell>
        <mxCell id="s_3r4BUJzknT4jBoe1-g-86" value="Kind_id" style="text;html=1;strokeColor=none;fillColor=none;align=center;verticalAlign=middle;whiteSpace=wrap;rounded=0;" vertex="1" parent="WIyWlLk6GJQsqaUBKTNV-1">
          <mxGeometry x="690" y="-50" width="130" height="30" as="geometry" />
        </mxCell>
        <mxCell id="s_3r4BUJzknT4jBoe1-g-87" value="&lt;span&gt;Kind name&lt;/span&gt;" style="text;html=1;strokeColor=none;fillColor=none;align=center;verticalAlign=middle;whiteSpace=wrap;rounded=0;" vertex="1" parent="WIyWlLk6GJQsqaUBKTNV-1">
          <mxGeometry x="690" y="-20" width="130" height="30" as="geometry" />
        </mxCell>
        <mxCell id="s_3r4BUJzknT4jBoe1-g-88" value="" style="endArrow=none;html=1;rounded=0;exitX=0;exitY=1;exitDx=0;exitDy=0;entryX=1;entryY=0;entryDx=0;entryDy=0;" edge="1" parent="WIyWlLk6GJQsqaUBKTNV-1" source="s_3r4BUJzknT4jBoe1-g-85" target="s_3r4BUJzknT4jBoe1-g-87">
          <mxGeometry width="50" height="50" relative="1" as="geometry">
            <mxPoint x="820" y="170" as="sourcePoint" />
            <mxPoint x="870" y="120" as="targetPoint" />
          </mxGeometry>
        </mxCell>
        <mxCell id="s_3r4BUJzknT4jBoe1-g-91" value="FK" style="text;html=1;strokeColor=none;fillColor=none;align=center;verticalAlign=middle;whiteSpace=wrap;rounded=0;" vertex="1" parent="WIyWlLk6GJQsqaUBKTNV-1">
          <mxGeometry x="440" y="40" width="40" height="30" as="geometry" />
        </mxCell>
        <mxCell id="s_3r4BUJzknT4jBoe1-g-93" value="FK" style="text;html=1;strokeColor=none;fillColor=none;align=center;verticalAlign=middle;whiteSpace=wrap;rounded=0;" vertex="1" parent="WIyWlLk6GJQsqaUBKTNV-1">
          <mxGeometry x="440" y="70" width="40" height="30" as="geometry" />
        </mxCell>
        <mxCell id="s_3r4BUJzknT4jBoe1-g-94" value="FK" style="text;html=1;strokeColor=none;fillColor=none;align=center;verticalAlign=middle;whiteSpace=wrap;rounded=0;" vertex="1" parent="WIyWlLk6GJQsqaUBKTNV-1">
          <mxGeometry x="440" y="210" width="40" height="30" as="geometry" />
        </mxCell>
        <mxCell id="s_3r4BUJzknT4jBoe1-g-95" value="FK" style="text;html=1;strokeColor=none;fillColor=none;align=center;verticalAlign=middle;whiteSpace=wrap;rounded=0;" vertex="1" parent="WIyWlLk6GJQsqaUBKTNV-1">
          <mxGeometry x="230" y="220" width="40" height="30" as="geometry" />
        </mxCell>
        <mxCell id="s_3r4BUJzknT4jBoe1-g-96" value="FK" style="text;html=1;strokeColor=none;fillColor=none;align=center;verticalAlign=middle;whiteSpace=wrap;rounded=0;" vertex="1" parent="WIyWlLk6GJQsqaUBKTNV-1">
          <mxGeometry x="440" y="-20" width="40" height="30" as="geometry" />
        </mxCell>
        <mxCell id="s_3r4BUJzknT4jBoe1-g-97" value="" style="rounded=0;whiteSpace=wrap;html=1;" vertex="1" parent="WIyWlLk6GJQsqaUBKTNV-1">
          <mxGeometry x="30" y="-90" width="170" height="90" as="geometry" />
        </mxCell>
        <mxCell id="s_3r4BUJzknT4jBoe1-g-98" value="" style="rounded=0;whiteSpace=wrap;html=1;" vertex="1" parent="WIyWlLk6GJQsqaUBKTNV-1">
          <mxGeometry x="30" y="-120" width="170" height="30" as="geometry" />
        </mxCell>
        <mxCell id="s_3r4BUJzknT4jBoe1-g-99" value="" style="rounded=0;whiteSpace=wrap;html=1;" vertex="1" parent="WIyWlLk6GJQsqaUBKTNV-1">
          <mxGeometry x="30" y="-90" width="40" height="90" as="geometry" />
        </mxCell>
        <mxCell id="s_3r4BUJzknT4jBoe1-g-100" value="Orders" style="text;html=1;strokeColor=none;fillColor=#E6E6E6;align=center;verticalAlign=middle;whiteSpace=wrap;rounded=0;" vertex="1" parent="WIyWlLk6GJQsqaUBKTNV-1">
          <mxGeometry x="30" y="-120" width="170" height="30" as="geometry" />
        </mxCell>
        <mxCell id="s_3r4BUJzknT4jBoe1-g-101" value="PK" style="text;html=1;strokeColor=none;fillColor=none;align=center;verticalAlign=middle;whiteSpace=wrap;rounded=0;" vertex="1" parent="WIyWlLk6GJQsqaUBKTNV-1">
          <mxGeometry x="30" y="-90" width="40" height="30" as="geometry" />
        </mxCell>
        <mxCell id="s_3r4BUJzknT4jBoe1-g-102" value="Order_id" style="text;html=1;strokeColor=none;fillColor=none;align=center;verticalAlign=middle;whiteSpace=wrap;rounded=0;" vertex="1" parent="WIyWlLk6GJQsqaUBKTNV-1">
          <mxGeometry x="70" y="-90" width="130" height="30" as="geometry" />
        </mxCell>
        <mxCell id="s_3r4BUJzknT4jBoe1-g-103" value="Order name" style="text;html=1;strokeColor=none;fillColor=none;align=center;verticalAlign=middle;whiteSpace=wrap;rounded=0;" vertex="1" parent="WIyWlLk6GJQsqaUBKTNV-1">
          <mxGeometry x="70" y="-60" width="130" height="30" as="geometry" />
        </mxCell>
        <mxCell id="s_3r4BUJzknT4jBoe1-g-104" value="" style="endArrow=none;html=1;rounded=0;exitX=0;exitY=1;exitDx=0;exitDy=0;entryX=1;entryY=0;entryDx=0;entryDy=0;" edge="1" parent="WIyWlLk6GJQsqaUBKTNV-1" source="s_3r4BUJzknT4jBoe1-g-101" target="s_3r4BUJzknT4jBoe1-g-103">
          <mxGeometry width="50" height="50" relative="1" as="geometry">
            <mxPoint x="200" y="130" as="sourcePoint" />
            <mxPoint x="250" y="80" as="targetPoint" />
          </mxGeometry>
        </mxCell>
        <mxCell id="s_3r4BUJzknT4jBoe1-g-107" value="" style="rounded=0;whiteSpace=wrap;html=1;" vertex="1" parent="WIyWlLk6GJQsqaUBKTNV-1">
          <mxGeometry x="30" y="70" width="170" height="60" as="geometry" />
        </mxCell>
        <mxCell id="s_3r4BUJzknT4jBoe1-g-108" value="" style="rounded=0;whiteSpace=wrap;html=1;" vertex="1" parent="WIyWlLk6GJQsqaUBKTNV-1">
          <mxGeometry x="30" y="40" width="170" height="30" as="geometry" />
        </mxCell>
        <mxCell id="s_3r4BUJzknT4jBoe1-g-109" value="" style="rounded=0;whiteSpace=wrap;html=1;" vertex="1" parent="WIyWlLk6GJQsqaUBKTNV-1">
          <mxGeometry x="30" y="70" width="40" height="60" as="geometry" />
        </mxCell>
        <mxCell id="s_3r4BUJzknT4jBoe1-g-110" value="Steps" style="text;html=1;strokeColor=none;fillColor=#E6E6E6;align=center;verticalAlign=middle;whiteSpace=wrap;rounded=0;" vertex="1" parent="WIyWlLk6GJQsqaUBKTNV-1">
          <mxGeometry x="30" y="40" width="170" height="30" as="geometry" />
        </mxCell>
        <mxCell id="s_3r4BUJzknT4jBoe1-g-111" value="PK" style="text;html=1;strokeColor=none;fillColor=none;align=center;verticalAlign=middle;whiteSpace=wrap;rounded=0;" vertex="1" parent="WIyWlLk6GJQsqaUBKTNV-1">
          <mxGeometry x="30" y="70" width="40" height="30" as="geometry" />
        </mxCell>
        <mxCell id="s_3r4BUJzknT4jBoe1-g-112" value="Step_id" style="text;html=1;strokeColor=none;fillColor=none;align=center;verticalAlign=middle;whiteSpace=wrap;rounded=0;" vertex="1" parent="WIyWlLk6GJQsqaUBKTNV-1">
          <mxGeometry x="70" y="70" width="130" height="30" as="geometry" />
        </mxCell>
        <mxCell id="s_3r4BUJzknT4jBoe1-g-113" value="&lt;span&gt;Step name&lt;/span&gt;" style="text;html=1;strokeColor=none;fillColor=none;align=center;verticalAlign=middle;whiteSpace=wrap;rounded=0;" vertex="1" parent="WIyWlLk6GJQsqaUBKTNV-1">
          <mxGeometry x="70" y="100" width="130" height="30" as="geometry" />
        </mxCell>
        <mxCell id="s_3r4BUJzknT4jBoe1-g-114" value="" style="endArrow=none;html=1;rounded=0;exitX=0;exitY=1;exitDx=0;exitDy=0;entryX=1;entryY=0;entryDx=0;entryDy=0;" edge="1" parent="WIyWlLk6GJQsqaUBKTNV-1" source="s_3r4BUJzknT4jBoe1-g-111" target="s_3r4BUJzknT4jBoe1-g-113">
          <mxGeometry width="50" height="50" relative="1" as="geometry">
            <mxPoint x="200" y="290" as="sourcePoint" />
            <mxPoint x="250" y="240" as="targetPoint" />
          </mxGeometry>
        </mxCell>
        <mxCell id="s_3r4BUJzknT4jBoe1-g-115" value="" style="rounded=0;whiteSpace=wrap;html=1;" vertex="1" parent="WIyWlLk6GJQsqaUBKTNV-1">
          <mxGeometry x="30" y="190" width="170" height="150" as="geometry" />
        </mxCell>
        <mxCell id="s_3r4BUJzknT4jBoe1-g-116" value="" style="rounded=0;whiteSpace=wrap;html=1;" vertex="1" parent="WIyWlLk6GJQsqaUBKTNV-1">
          <mxGeometry x="30" y="160" width="170" height="30" as="geometry" />
        </mxCell>
        <mxCell id="s_3r4BUJzknT4jBoe1-g-117" value="" style="rounded=0;whiteSpace=wrap;html=1;" vertex="1" parent="WIyWlLk6GJQsqaUBKTNV-1">
          <mxGeometry x="30" y="190" width="40" height="150" as="geometry" />
        </mxCell>
        <mxCell id="s_3r4BUJzknT4jBoe1-g-118" value="Buy_step" style="text;html=1;strokeColor=none;fillColor=#E6E6E6;align=center;verticalAlign=middle;whiteSpace=wrap;rounded=0;" vertex="1" parent="WIyWlLk6GJQsqaUBKTNV-1">
          <mxGeometry x="30" y="160" width="170" height="30" as="geometry" />
        </mxCell>
        <mxCell id="s_3r4BUJzknT4jBoe1-g-119" value="PK" style="text;html=1;strokeColor=none;fillColor=none;align=center;verticalAlign=middle;whiteSpace=wrap;rounded=0;" vertex="1" parent="WIyWlLk6GJQsqaUBKTNV-1">
          <mxGeometry x="30" y="190" width="40" height="30" as="geometry" />
        </mxCell>
        <mxCell id="s_3r4BUJzknT4jBoe1-g-120" value="Buy_step" style="text;html=1;strokeColor=none;fillColor=none;align=center;verticalAlign=middle;whiteSpace=wrap;rounded=0;" vertex="1" parent="WIyWlLk6GJQsqaUBKTNV-1">
          <mxGeometry x="70" y="190" width="130" height="30" as="geometry" />
        </mxCell>
        <mxCell id="s_3r4BUJzknT4jBoe1-g-122" value="" style="endArrow=none;html=1;rounded=0;exitX=0;exitY=1;exitDx=0;exitDy=0;entryX=1;entryY=0;entryDx=0;entryDy=0;" edge="1" parent="WIyWlLk6GJQsqaUBKTNV-1" source="s_3r4BUJzknT4jBoe1-g-119">
          <mxGeometry width="50" height="50" relative="1" as="geometry">
            <mxPoint x="200" y="410" as="sourcePoint" />
            <mxPoint x="200" y="220" as="targetPoint" />
          </mxGeometry>
        </mxCell>
        <mxCell id="s_3r4BUJzknT4jBoe1-g-123" value="Order_id" style="text;html=1;strokeColor=none;fillColor=none;align=center;verticalAlign=middle;whiteSpace=wrap;rounded=0;" vertex="1" parent="WIyWlLk6GJQsqaUBKTNV-1">
          <mxGeometry x="70" y="220" width="130" height="30" as="geometry" />
        </mxCell>
        <mxCell id="s_3r4BUJzknT4jBoe1-g-124" value="Client_id" style="text;html=1;strokeColor=none;fillColor=none;align=center;verticalAlign=middle;whiteSpace=wrap;rounded=0;" vertex="1" parent="WIyWlLk6GJQsqaUBKTNV-1">
          <mxGeometry x="70" y="250" width="130" height="30" as="geometry" />
        </mxCell>
        <mxCell id="s_3r4BUJzknT4jBoe1-g-126" value="Client_id" style="text;html=1;strokeColor=none;fillColor=none;align=center;verticalAlign=middle;whiteSpace=wrap;rounded=0;" vertex="1" parent="WIyWlLk6GJQsqaUBKTNV-1">
          <mxGeometry x="70" y="-30" width="130" height="30" as="geometry" />
        </mxCell>
        <mxCell id="s_3r4BUJzknT4jBoe1-g-127" value="Data_step_beg" style="text;html=1;strokeColor=none;fillColor=none;align=center;verticalAlign=middle;whiteSpace=wrap;rounded=0;" vertex="1" parent="WIyWlLk6GJQsqaUBKTNV-1">
          <mxGeometry x="70" y="280" width="130" height="30" as="geometry" />
        </mxCell>
        <mxCell id="s_3r4BUJzknT4jBoe1-g-128" value="Data_step_end" style="text;html=1;strokeColor=none;fillColor=none;align=center;verticalAlign=middle;whiteSpace=wrap;rounded=0;" vertex="1" parent="WIyWlLk6GJQsqaUBKTNV-1">
          <mxGeometry x="70" y="310" width="130" height="30" as="geometry" />
        </mxCell>
        <mxCell id="s_3r4BUJzknT4jBoe1-g-131" value="FK" style="text;html=1;strokeColor=none;fillColor=none;align=center;verticalAlign=middle;whiteSpace=wrap;rounded=0;" vertex="1" parent="WIyWlLk6GJQsqaUBKTNV-1">
          <mxGeometry x="30" y="-30" width="40" height="30" as="geometry" />
        </mxCell>
        <mxCell id="s_3r4BUJzknT4jBoe1-g-132" value="FK" style="text;html=1;strokeColor=none;fillColor=none;align=center;verticalAlign=middle;whiteSpace=wrap;rounded=0;" vertex="1" parent="WIyWlLk6GJQsqaUBKTNV-1">
          <mxGeometry x="30" y="250" width="40" height="30" as="geometry" />
        </mxCell>
      </root>
    </mxGraphModel>
  </diagram>
</mxfile>
